<svg width="228" height="486" viewBox="0 0 228 486" fill="none" xmlns="http://www.w3.org/2000/svg">
<path opacity="0.2" fill-rule="evenodd" clip-rule="evenodd" d="M168 153.761V336C168 385.706 127.706 426 78 426C53.9835 426 32.164 416.593 16.0254 401.262L168 153.761ZM139.974 84.7375L-12 332.239V150C-12 100.294 28.2944 60 78 60C102.017 60 123.836 69.407 139.974 84.7375ZM-72 150C-72 67.1573 -4.84271 0 78 0C160.843 0 228 67.1573 228 150V336C228 418.843 160.843 486 78 486C-4.84271 486 -72 418.843 -72 336V150Z" fill="white"/>
</svg>
